<svg width="65" height="65" fill="none" xmlns="http://www.w3.org/2000/svg"><circle cx="32.5" cy="32.5" r="32.5" fill="#2824D5"/><path d="M16 22.167C16 20.97 16.98 20 18.188 20h26.25c1.21 0 2.187.97 2.187 2.167a2.175 2.175 0 0 1-2.188 2.166h-26.25A2.176 2.176 0 0 1 16 22.167ZM20.375 33c0-1.198.98-2.167 2.188-2.167h26.25c1.21 0 2.187.969 2.187 2.167a2.175 2.175 0 0 1-2.188 2.167h-26.25A2.176 2.176 0 0 1 20.375 33Zm24.063 13h-26.25A2.176 2.176 0 0 1 16 43.833c0-1.198.98-2.166 2.188-2.166h26.25c1.21 0 2.187.968 2.187 2.166A2.175 2.175 0 0 1 44.437 46Z" fill="#fff"/></svg>