<svg width="238" height="65" fill="none" xmlns="http://www.w3.org/2000/svg"><path d="M85.82 29.49h3.57v4.95h-3.36V45h-6.78V34.44H77v-4.95h2.25v-.09c0-2.14.64-3.83 1.92-5.07 1.28-1.26 3.08-1.89 5.4-1.89.76 0 1.5.07 2.22.21.72.14 1.32.34 1.8.6l-1.62 4.71c-.56-.26-1.07-.39-1.53-.39-.5 0-.9.16-1.2.48-.28.3-.42.77-.42 1.41v.03Zm14.306.87c1.2-1.38 2.97-2.07 5.31-2.07v6c-.54-.08-1.04-.12-1.5-.12-2.32 0-3.48 1.18-3.48 3.54V45h-6.78V28.59h6.45v1.77Zm15.755 14.94c-1.82 0-3.46-.36-4.92-1.08-1.44-.74-2.57-1.75-3.39-3.03-.82-1.3-1.23-2.77-1.23-4.41 0-1.64.41-3.1 1.23-4.38.82-1.3 1.95-2.31 3.39-3.03 1.46-.72 3.1-1.08 4.92-1.08 1.84 0 3.48.36 4.92 1.08 1.46.72 2.59 1.73 3.39 3.03.82 1.28 1.23 2.74 1.23 4.38 0 1.64-.41 3.11-1.23 4.41-.8 1.28-1.93 2.29-3.39 3.03-1.44.72-3.08 1.08-4.92 1.08Zm0-5.28c.78 0 1.42-.28 1.92-.84.5-.58.75-1.38.75-2.4s-.25-1.81-.75-2.37-1.14-.84-1.92-.84-1.42.28-1.92.84c-.5.56-.75 1.35-.75 2.37s.25 1.82.75 2.4c.5.56 1.14.84 1.92.84Zm23.062-11.73c2.02 0 3.64.61 4.86 1.83 1.24 1.22 1.86 3.06 1.86 5.52V45h-6.78v-8.19c0-1.88-.67-2.82-2.01-2.82-.76 0-1.38.27-1.86.81-.46.52-.69 1.35-.69 2.49V45h-6.78V28.59h6.45v1.62c.64-.64 1.38-1.12 2.22-1.44.84-.32 1.75-.48 2.73-.48Zm21.754 16.14c-1.02.58-2.41.87-4.17.87-2.3 0-4.07-.55-5.31-1.65-1.24-1.12-1.86-2.79-1.86-5.01v-4.2h-2.25v-4.95h2.25V24.9h6.78v4.59h3.36v4.95h-3.36v4.14c0 .5.13.89.39 1.17.26.28.6.42 1.02.42.58 0 1.09-.15 1.53-.45l1.62 4.71Zm8.129.87c-1.4 0-2.78-.15-4.14-.45-1.36-.3-2.46-.69-3.3-1.17l1.86-4.47c.76.46 1.66.82 2.7 1.08 1.04.26 2.05.39 3.03.39.78 0 1.32-.06 1.62-.18.32-.14.48-.34.48-.6 0-.26-.2-.44-.6-.54-.38-.1-1.01-.2-1.89-.3-1.34-.16-2.48-.36-3.42-.6-.94-.26-1.77-.75-2.49-1.47-.7-.72-1.05-1.75-1.05-3.09 0-1.06.32-2.01.96-2.85.64-.84 1.59-1.51 2.85-2.01 1.28-.5 2.81-.75 4.59-.75 1.24 0 2.45.12 3.63.36 1.2.22 2.22.55 3.06.99l-1.86 4.47c-1.44-.8-3.02-1.2-4.74-1.2-1.48 0-2.22.26-2.22.78 0 .26.2.45.6.57.4.1 1.03.2 1.89.3 1.34.16 2.47.37 3.39.63.94.26 1.76.75 2.46 1.47.72.72 1.08 1.75 1.08 3.09 0 1.02-.32 1.95-.96 2.79-.64.84-1.6 1.51-2.88 2.01-1.28.5-2.83.75-4.65.75Zm10.543-16.71h6.78V45h-6.78V28.59Zm3.39-1.32c-1.22 0-2.21-.32-2.97-.96-.74-.66-1.11-1.49-1.11-2.49 0-1 .37-1.82 1.11-2.46.76-.66 1.75-.99 2.97-.99 1.24 0 2.23.31 2.97.93.74.62 1.11 1.42 1.11 2.4 0 1.04-.37 1.9-1.11 2.58-.74.66-1.73.99-2.97.99Zm24.545-4.53V45h-6.45v-1.35c-.98 1.1-2.48 1.65-4.5 1.65a8.06 8.06 0 0 1-3.99-1.02c-1.2-.7-2.16-1.7-2.88-3-.7-1.3-1.05-2.8-1.05-4.5 0-1.7.35-3.19 1.05-4.47.72-1.3 1.68-2.29 2.88-2.97 1.22-.7 2.55-1.05 3.99-1.05 1.82 0 3.21.47 4.17 1.41v-6.96h6.78Zm-9.33 17.28c.78 0 1.42-.28 1.92-.84.5-.58.75-1.38.75-2.4s-.25-1.81-.75-2.37-1.14-.84-1.92-.84-1.42.28-1.92.84c-.5.56-.75 1.35-.75 2.37s.25 1.82.75 2.4c.5.56 1.14.84 1.92.84Zm29.793-3.24c0 .1-.03.63-.09 1.59h-11.4c.24.62.64 1.1 1.2 1.44.56.32 1.26.48 2.1.48.72 0 1.32-.09 1.8-.27.5-.18 1.04-.49 1.62-.93l3.54 3.57c-1.6 1.76-3.99 2.64-7.17 2.64-1.98 0-3.72-.36-5.22-1.08-1.5-.74-2.66-1.76-3.48-3.06-.82-1.3-1.23-2.76-1.23-4.38 0-1.64.4-3.1 1.2-4.38.82-1.3 1.93-2.31 3.33-3.03 1.42-.72 3.01-1.08 4.77-1.08 1.66 0 3.17.33 4.53.99 1.38.66 2.47 1.63 3.27 2.91.82 1.28 1.23 2.81 1.23 4.59Zm-8.97-3.87c-.7 0-1.28.19-1.74.57-.46.38-.76.92-.9 1.62h5.28c-.14-.68-.44-1.21-.9-1.59-.46-.4-1.04-.6-1.74-.6Zm14.169 12.39c-1.14 0-2.09-.36-2.85-1.08-.74-.74-1.11-1.68-1.11-2.82s.37-2.06 1.11-2.76c.76-.72 1.71-1.08 2.85-1.08 1.14 0 2.08.36 2.82 1.08.76.7 1.14 1.62 1.14 2.76 0 1.14-.38 2.08-1.14 2.82-.74.72-1.68 1.08-2.82 1.08Z" fill="#2824D5"/><circle cx="32.5" cy="32.5" r="32.5" fill="#2824D5"/><path d="M16 22.167C16 20.97 16.98 20 18.188 20h26.25c1.21 0 2.187.97 2.187 2.167a2.175 2.175 0 0 1-2.188 2.166h-26.25A2.176 2.176 0 0 1 16 22.167ZM20.375 33c0-1.198.98-2.167 2.188-2.167h26.25c1.21 0 2.187.969 2.187 2.167a2.175 2.175 0 0 1-2.188 2.167h-26.25A2.176 2.176 0 0 1 20.375 33Zm24.063 13h-26.25A2.176 2.176 0 0 1 16 43.833c0-1.198.98-2.166 2.188-2.166h26.25c1.21 0 2.187.968 2.187 2.166A2.175 2.175 0 0 1 44.437 46Z" fill="#000"/></svg>